PathFileType	4	(X/Y/Z)	F:\MotionCapture\20160217\3\Generated_files\EMG_Fprce_test04-Dynamic.trc
DataRate	CameraRate	NumFrames	NumMarkers	Units	OrigDataRate	OrigDataStartFrame	OrigNumFrames
120.00	120.00	       6	39	mm	120.00	354	       566
Frame#	Time	Top.Head			Front.Head			Rear.Head			R.Shoulder			R.Offset			R.Elbow			R.Wrist			L.Shoulder			L.Elbow			L.Wrist			R.ASIS			L.ASIS			V.Sacral			R.Thigh			R.Knee			R.Shank			R.Ankle			R.Heel			R.Toe			L.Thigh			L.Knee			L.Shank			L.Ankle			L.Heel			L.Toe			R1			R2			R3			R4			R5			R6			R7			L1			L2			L3			L4			L5			L6			L7			V_Mid_ASIS			V_Pelvis_Origin			V_R.Hip_JC			V_L.Hip_JC			V_R.Knee_JC			V_L.Knee_JC			V_R.Ankle_JC			V_L.Ankle_JC			V_Mid_Hip			V_Mid_Shoulder			V_R.Hand			V_L.Hand			V_R.Toe_Offset_Static			V_L.Toe_Offset_Static			V_R.Toe_Offset			V_L.Toe_Offset			
		X1	Y1	Z1	X2	Y2	Z2	X3	Y3	Z3	X4	Y4	Z4	X5	Y5	Z5	X6	Y6	Z6	X7	Y7	Z7	X8	Y8	Z8	X9	Y9	Z9	X10	Y10	Z10	X11	Y11	Z11	X12	Y12	Z12	X13	Y13	Z13	X14	Y14	Z14	X15	Y15	Z15	X16	Y16	Z16	X17	Y17	Z17	X18	Y18	Z18	X19	Y19	Z19	X20	Y20	Z20	X21	Y21	Z21	X22	Y22	Z22	X23	Y23	Z23	X24	Y24	Z24	X25	Y25	Z25	X26	Y26	Z26	X27	Y27	Z27	X28	Y28	Z28	X29	Y29	Z29	X30	Y30	Z30	X31	Y31	Z31	X32	Y32	Z32	X33	Y33	Z33	X34	Y34	Z34	X35	Y35	Z35	X36	Y36	Z36	X37	Y37	Z37	X38	Y38	Z38	X39	Y39	Z39	

354	2.942	-1223.49658	211.32329	1738.30774	-1345.18359	207.72978	1671.62195	-1125.31982	205.06606	1654.46777	-1217.32629	400.23041	1432.83484	-1086.39172	139.36255	1281.79321	-1217.82971	504.51685	1107.02368	-1364.51563	499.85968	888.93341	-1223.56702	-4.52524	1434.39429	-1210.24622	-116.77151	1115.00769	-1354.38452	-115.84556	898.04309	-1289.11829	342.82639	953.10681	-1301.32605	57.61762	955.10455	-1072.23889	186.20792	955.61304	-1317.26514	283.74545	573.64484	-1248.68103	319.19510	466.25708	-1239.00049	237.16711	234.90187	-1178.19043	300.10181	70.61840	-1111.56042	234.82913	43.52506	-1323.05127	288.87350	39.60270	-1414.60144	72.29202	660.82501	-1347.47510	10.18606	485.33798	-1293.52576	84.60290	350.85672	-1063.63184	48.17348	189.78052	-1016.64026	119.19277	210.23357	-1147.89526	31.14931	81.19890	-1368.70947	269.16132	36.96449	-1329.76440	250.13260	43.47009	-1233.29688	209.56477	51.66122	-1159.79053	205.62733	40.86689	-1140.21326	278.46130	43.72684	-1214.27271	309.61197	36.30372	-1279.99646	329.80554	35.67981	-1183.79236	43.97316	49.42802	-1165.36316	64.57909	71.84536	-1115.71155	123.28524	136.02531	-1055.14087	140.74187	182.61766	-1025.55530	73.53722	195.63261	-1068.35791	30.09383	140.84950	-1112.40149	10.68732	101.57549	
355	2.950	-1236.29602	211.61453	1738.80029	-1357.77502	207.72556	1671.97461	-1137.73669	205.36209	1655.55432	-1230.04944	400.53577	1433.93823	-1098.34961	140.38300	1282.85291	-1234.31445	506.48950	1108.69080	-1389.02344	500.28793	896.10645	-1235.55688	-4.37877	1434.70435	-1216.90088	-115.98988	1116.08313	-1353.86462	-117.71312	894.39825	-1300.11133	344.47083	953.06152	-1313.89282	59.79576	956.46582	-1084.60242	185.45399	956.69891	-1322.53662	284.02628	572.22833	-1251.61475	319.63193	466.11649	-1240.37073	237.30466	234.78917	-1178.67383	299.84152	70.63476	-1111.86035	234.40411	43.92007	-1323.07935	289.15894	39.54169	-1431.36755	74.20338	665.45715	-1367.49402	11.83412	487.93286	-1318.68262	86.84133	351.75040	-1095.61047	51.58702	180.42818	-1048.13806	123.37782	197.77293	-1186.66125	32.50699	78.14371	-1368.65991	269.35669	36.77537	-1329.77795	250.24905	43.35184	-1232.95520	209.57898	51.01066	-1159.90088	205.38683	41.03852	-1141.46497	278.73593	43.03217	-1214.20898	309.63522	36.45789	-1279.89929	329.88156	35.56698	-1225.18811	44.85331	49.04877	-1204.61169	65.67272	69.42178	-1152.64685	125.52939	129.45561	-1088.37256	143.15723	172.41833	-1058.56982	77.98686	183.41832	-1103.32129	32.85720	132.79926	-1149.89941	12.77001	96.74142	
356	2.958	-1248.61255	211.68140	1738.66992	-1370.04785	207.56731	1671.98181	-1150.70349	205.48573	1655.23206	-1242.45764	400.77023	1434.87268	-1110.29126	141.44493	1282.78235	-1250.88196	508.49091	1110.58826	-1413.37097	500.22812	903.39490	-1247.15637	-4.00814	1434.45239	-1223.30115	-115.73905	1116.43542	-1353.68689	-119.54556	890.97424	-1310.36340	345.86624	952.28790	-1326.93555	61.50827	957.58740	-1096.39563	184.63312	957.40112	-1328.28613	284.26178	570.61371	-1254.63037	319.92270	465.52533	-1241.99292	236.74400	235.25534	-1177.25842	298.82468	71.03145	-1111.09094	233.79993	44.66196	-1323.07458	289.38696	39.46005	-1448.00745	76.24670	669.78381	-1387.02563	13.68849	490.52234	-1342.96594	89.05769	352.57657	-1129.20190	54.67253	171.26318	-1079.65271	127.22421	184.69113	-1225.85669	33.95190	75.13231	-1369.16541	270.73227	37.64619	-1330.14587	250.83325	44.09495	-1233.43701	209.53172	51.29739	-1160.36719	205.55008	41.15225	-1141.46594	278.57782	43.07857	-1213.51721	309.76981	36.10492	-1279.90686	329.93173	35.53591	-1265.70679	45.48163	48.05574	-1244.53931	66.92861	67.38462	-1188.23853	127.38235	122.80814	-1121.74561	146.44962	161.16771	-1091.56665	81.57451	171.68968	-1139.35437	35.20462	124.36926	-1187.80725	14.20027	91.06441	
357	2.967	-1260.86438	211.58206	1738.37988	-1382.87231	207.42671	1671.75464	-1163.21692	205.61946	1655.38513	-1255.00330	400.78647	1435.50305	-1122.51208	142.38252	1282.79529	-1267.30676	510.62857	1111.58191	-1437.13232	500.08295	910.53931	-1259.09839	-3.70754	1433.87476	-1229.79138	-115.83567	1116.48987	-1353.40100	-121.72843	887.40106	-1321.53125	347.55530	951.52679	-1339.63013	62.95847	958.05499	-1108.33911	183.78520	957.66510	-1335.15466	284.91693	569.19318	-1258.50818	319.97879	464.91882	-1243.30688	237.19458	234.29366	-1177.29980	298.70822	71.16593	-1111.25586	233.38026	45.30577	-1323.07813	289.47031	39.30852	-1464.29492	78.45362	673.51715	-1406.17859	15.47045	492.17798	-1368.52490	91.45738	352.79929	-1163.20813	57.40924	161.54367	-1112.47180	130.36336	172.10719	-1265.10107	35.77973	72.27433	-1369.43884	270.98343	37.46263	-1330.23169	251.00606	43.95557	-1233.58154	209.49792	51.23294	-1160.36975	205.42003	41.40294	-1141.54761	278.39917	43.27753	-1213.78955	309.57709	36.32309	-1279.87769	329.95703	35.50729	-1306.61450	46.53722	47.49405	-1284.70728	68.31314	65.11564	-1225.31018	129.79208	116.53112	-1154.68457	150.09407	151.26450	-1125.55188	84.29551	159.99374	-1175.81250	37.73740	116.10164	-1225.67371	17.32472	86.17245																																																	3549.94238	-1439.09155	-1314.29187	-1346.18152	279.61969	38.21863	
358	2.975	-1273.62549	211.64552	1737.94678	-1395.02979	207.38739	1671.32007	-1175.41919	205.62158	1654.73816	-1267.42163	401.13440	1435.47156	-1134.32214	143.53513	1281.95947	-1283.97180	512.99084	1112.72559	-1460.92236	500.10324	918.00427	-1271.45020	-3.38238	1432.91553	-1236.45203	-115.23701	1116.62402	-1353.16443	-123.79216	883.90234	-1331.90918	348.94797	950.08575	-1351.80957	64.66652	958.07031	-1120.03528	183.58311	956.58600	-1340.10974	284.74277	566.51813	-1263.04956	320.07996	464.13992	-1244.91687	236.85095	233.90479	-1177.37634	298.49503	71.40683	-1111.80676	233.11681	45.92405	-1323.14087	289.55576	39.19891	-1480.14404	80.47645	676.62103	-1425.16101	17.23631	494.02744	-1393.14880	93.35056	353.09744	-1198.11206	59.88864	151.74448	-1146.30481	132.62329	159.52284	-1304.58472	37.65533	69.10644	-1369.76306	270.68472	36.55317	-1330.06738	250.68785	43.10525	-1233.74304	209.42093	51.11907	-1160.68848	205.14870	41.36415	-1141.53882	278.07047	44.02402	-1213.93994	309.47449	36.41298	-1279.91431	329.99728	35.47288	-1347.68225	48.37077	47.23021	-1324.70520	70.24003	63.35469	-1262.94189	131.87325	110.12579	-1189.40039	152.23024	140.74983	-1160.21301	86.98934	147.93159	-1212.21228	39.37438	107.02531	-1264.55371	19.28416	81.04758																																																	-1347.08289	279.87668	37.75558	3529.39624	-1433.06958	-1398.12683	
359	2.983	-1286.27844	211.21339	1738.01917	-1407.46790	207.33084	1670.26367	-1187.70398	205.76714	1653.85327	-1280.24194	401.10519	1435.23730	-1146.81860	143.98277	1280.41199	-1300.21826	515.25220	1113.26196	-1484.27844	499.87457	925.45349	-1283.61597	-3.14531	1431.78174	-1243.09692	-115.08913	1116.41943	-1352.78772	-125.59772	880.36005	-1344.20508	349.00110	948.88470	-1365.11682	65.10534	957.50153	-1131.32715	182.64365	955.84027	-1347.27966	285.28528	564.29095	-1268.17651	319.57950	463.25815	-1246.89502	236.52501	233.42494	-1177.90173	297.96432	71.79228	-1112.48889	232.99985	45.77500	-1323.23413	289.67276	39.07410	-1495.28284	82.87674	679.14972	-1443.42163	18.83262	495.01685	-1417.44202	95.48936	353.26120	-1232.61658	62.03407	141.67697	-1181.88171	134.34920	146.76718	-1344.52014	39.75323	66.28553	-1370.37415	271.11032	36.27433	-1331.11426	250.49405	43.79020	-1233.80811	209.33080	51.14222	-1160.86230	205.13843	41.69196	-1141.62891	277.76019	44.94821	-1214.03638	309.38629	36.50970	-1279.91797	329.99323	35.45218	-1388.77332	50.37753	46.96222	-1365.11255	72.21955	61.58673	-1298.96729	133.61949	104.19958	-1224.89697	154.39061	130.80663	-1195.45959	88.78775	136.10889	-1250.08459	41.51610	98.30032	-1304.57703	22.38194	76.52074																																																	-1345.97876	280.71021	37.95366	
